<?xml version="1.0" encoding="UTF-8"?>
<svg id="Layer_2" data-name="Layer 2" xmlns="http://www.w3.org/2000/svg" viewBox="0 0 326.46 52.57">
  <defs>
    <style>
      .cls-1 {
        fill: #0b5ace;
      }

      .cls-2 {
        fill: #1a1a1a;
      }
    </style>
  </defs>
  <g id="Layer_1-2" data-name="Layer 1">
    <path class="cls-1" d="M15.54,0V1.26c-3.65,.73-5.48,2.51-5.48,5.34,0,1.2,.23,2.73,.69,4.59,.46,1.86,.69,3.39,.69,4.57,0,2.14-.76,4.07-2.28,5.8s-3.82,2.95-6.91,3.64v.11c3.43,.9,5.82,2.21,7.19,3.92s2.05,3.5,2.05,5.35c0,.94-.23,2.37-.69,4.31-.46,1.94-.69,3.49-.69,4.65,0,3.2,1.81,5.12,5.42,5.76v1.26c-.19,.04-.5,.06-.93,.06-2.98,0-5.5-.91-7.56-2.74-2.06-1.83-3.09-4.04-3.09-6.64,0-1.03,.25-2.53,.74-4.5,.5-1.97,.74-3.47,.74-4.52,0-3.45-1.82-5.48-5.45-6.1v-1.69c3.63-.66,5.45-2.76,5.45-6.32,0-1.22-.24-2.74-.72-4.57s-.72-3.25-.72-4.26c0-2.42,1-4.57,3.01-6.45C9.03,.97,11.86,.02,15.54,0Z"/>
    <path class="cls-1" d="M310.92,52.57v-1.26c3.67-.69,5.51-2.48,5.51-5.37,0-1.2-.23-2.72-.69-4.57-.46-1.84-.69-3.37-.69-4.57,0-2.08,.75-3.99,2.24-5.75,1.49-1.75,3.8-2.96,6.92-3.64v-.11c-3.31-.88-5.67-2.2-7.1-3.96-1.43-1.76-2.14-3.53-2.14-5.31,0-1.01,.23-2.47,.7-4.37,.47-1.9,.7-3.45,.7-4.65,0-3.17-1.82-5.07-5.45-5.7v-1.32h.93c2.98,0,5.5,.91,7.56,2.73,2.06,1.82,3.09,4.04,3.09,6.66,0,.97-.25,2.46-.74,4.45-.5,1.99-.74,3.5-.74,4.51,0,3.48,1.82,5.52,5.45,6.1v1.74c-3.63,.6-5.45,2.69-5.45,6.27,0,1.2,.24,2.73,.72,4.59,.48,1.86,.72,3.26,.72,4.2,0,2.42-1.01,4.58-3.02,6.48-2.01,1.9-4.85,2.85-8.5,2.85Z"/>
    <g>
      <path class="cls-2" d="M43.04,20.98l3.22,11.54,2.77-11.54h6.25l-4.96,17.47h-6.19l-3.9-12.44-3.58,12.44h-6.54l-4.84-17.47h6.29l2.74,11.67,3.19-11.67h5.55Z"/>
      <path class="cls-2" d="M77.12,33.14v1.48c0,.69-.04,1.28-.11,1.77-.08,.49-.24,.89-.5,1.19-.26,.3-.64,.52-1.14,.66-.51,.14-1.18,.21-2.02,.21h-12.03c-.84,0-1.51-.07-2.02-.21-.51-.14-.89-.36-1.14-.66-.26-.3-.42-.7-.5-1.19-.08-.49-.11-1.08-.11-1.77v-9.83c0-.69,.04-1.27,.11-1.76,.07-.48,.24-.89,.5-1.21,.26-.3,.64-.52,1.14-.66,.5-.14,1.18-.21,2.02-.21h12.03c.84,0,1.51,.07,2.02,.21,.5,.14,.9,.36,1.18,.66,.26,.32,.42,.73,.5,1.21,.08,.48,.11,1.07,.11,1.76v6.06h-13.15v3.64c0,.3,.05,.51,.15,.63s.3,.18,.6,.18h5.22c.3,0,.5-.06,.6-.18,.1-.12,.15-.33,.15-.63v-1.35h6.42Zm-13.12-5.45h6.71v-2.77c0-.3-.05-.51-.15-.63-.1-.12-.3-.18-.6-.18h-5.22c-.3,0-.5,.06-.6,.18s-.15,.33-.15,.63v2.77Z"/>
      <path class="cls-2" d="M80.44,14.67h6.45v6.29h9.35c.84,0,1.51,.07,2.02,.21,.5,.14,.89,.36,1.14,.66,.26,.32,.42,.73,.5,1.21,.08,.48,.11,1.07,.11,1.76v9.83c0,.69-.04,1.28-.11,1.77-.08,.49-.24,.89-.5,1.19-.26,.3-.64,.52-1.14,.66-.51,.14-1.18,.21-2.02,.21h-15.8V14.67Zm6.45,20.63h5.96c.3,0,.5-.06,.6-.18,.1-.12,.15-.33,.15-.63v-9.58c0-.3-.05-.51-.15-.63-.1-.12-.3-.18-.6-.18h-5.96v11.19Z"/>
      <path class="cls-2" d="M122.9,38.46h-15.8c-.84,0-1.51-.07-2.02-.21-.51-.14-.89-.36-1.14-.66-.26-.3-.42-.7-.5-1.19-.08-.49-.11-1.08-.11-1.77v-9.83c0-.69,.04-1.27,.11-1.76,.07-.48,.24-.89,.5-1.21,.26-.3,.64-.52,1.14-.66,.5-.14,1.18-.21,2.02-.21h9.35v-6.29h6.45v23.79Zm-6.45-14.35h-5.96c-.3,0-.5,.06-.6,.18s-.15,.33-.15,.63v9.58c0,.3,.05,.51,.15,.63s.3,.18,.6,.18h5.96v-11.19Z"/>
      <path class="cls-2" d="M145.79,33.14v1.48c0,.69-.04,1.28-.11,1.77-.08,.49-.24,.89-.5,1.19-.26,.3-.64,.52-1.14,.66-.51,.14-1.18,.21-2.02,.21h-12.03c-.84,0-1.51-.07-2.02-.21-.51-.14-.89-.36-1.14-.66-.26-.3-.42-.7-.5-1.19-.08-.49-.11-1.08-.11-1.77v-9.83c0-.69,.04-1.27,.11-1.76,.07-.48,.24-.89,.5-1.21,.26-.3,.64-.52,1.14-.66,.5-.14,1.18-.21,2.02-.21h12.03c.84,0,1.51,.07,2.02,.21,.5,.14,.9,.36,1.18,.66,.26,.32,.42,.73,.5,1.21,.08,.48,.11,1.07,.11,1.76v6.06h-13.15v3.64c0,.3,.05,.51,.15,.63s.3,.18,.6,.18h5.22c.3,0,.5-.06,.6-.18,.1-.12,.15-.33,.15-.63v-1.35h6.42Zm-13.12-5.45h6.71v-2.77c0-.3-.05-.51-.15-.63-.1-.12-.3-.18-.6-.18h-5.22c-.3,0-.5,.06-.6,.18s-.15,.33-.15,.63v2.77Z"/>
      <path class="cls-2" d="M159.04,33.17l4.61-12.22h6.38l-7.64,17.51h-6.74l-7.54-17.51h6.29l4.64,12.22Z"/>
      <path class="cls-2" d="M191.89,32.17v2.45c0,.69-.04,1.28-.11,1.77-.08,.49-.24,.89-.5,1.19-.26,.3-.64,.52-1.14,.66-.51,.14-1.18,.21-2.02,.21h-12.03c-.84,0-1.51-.07-2.02-.21-.51-.14-.89-.36-1.14-.66-.26-.3-.42-.7-.5-1.19-.08-.49-.11-1.08-.11-1.77v-9.83c0-.69,.04-1.27,.11-1.76,.07-.48,.24-.89,.5-1.21,.26-.3,.64-.52,1.14-.66,.5-.14,1.18-.21,2.02-.21h12.03c.84,0,1.51,.07,2.02,.21,.5,.14,.89,.36,1.14,.66,.26,.32,.42,.73,.5,1.21,.08,.48,.11,1.07,.11,1.76v2.13h-6.42v-2c0-.3-.05-.51-.15-.63-.1-.12-.3-.18-.6-.18h-5.22c-.3,0-.5,.06-.6,.18s-.15,.33-.15,.63v9.58c0,.3,.05,.51,.15,.63s.3,.18,.6,.18h5.22c.3,0,.5-.06,.6-.18,.1-.12,.15-.33,.15-.63v-2.32h6.42Z"/>
      <path class="cls-2" d="M195.24,25.95v-1.16c0-.69,.04-1.27,.11-1.76,.07-.48,.24-.89,.5-1.21,.26-.3,.64-.52,1.14-.66,.5-.14,1.18-.21,2.02-.21h12.03c.84,0,1.51,.07,2.02,.21,.5,.14,.89,.36,1.14,.66,.26,.32,.42,.73,.5,1.21,.08,.48,.11,1.07,.11,1.76v9.83c0,.69-.04,1.28-.11,1.77-.08,.49-.24,.89-.5,1.19-.26,.3-.64,.52-1.14,.66-.51,.14-1.18,.21-2.02,.21h-12.03c-.84,0-1.51-.07-2.02-.21-.51-.14-.89-.36-1.14-.66-.28-.3-.46-.7-.53-1.19-.08-.49-.11-1.08-.11-1.77v-4.8c0-.75,.19-1.27,.58-1.55s.97-.42,1.74-.42h10.83v-2.93c0-.3-.05-.51-.15-.63-.1-.12-.3-.18-.6-.18h-5.22c-.3,0-.5,.06-.6,.18s-.15,.33-.15,.63v1.03h-6.42Zm13.12,5.06h-6.71v3.48c0,.3,.05,.51,.15,.63s.3,.18,.6,.18h5.22c.3,0,.5-.06,.6-.18,.1-.12,.15-.33,.15-.63v-3.48Z"/>
      <path class="cls-2" d="M231.29,25.85v-.48c0-.5-.08-.83-.24-1-.16-.17-.49-.26-.98-.26h-4.29c-.49,0-.83,.09-1,.26-.17,.17-.26,.5-.26,1v2.32h10.03c1.03,0,1.82,.14,2.35,.42,.54,.28,.81,.88,.81,1.8v4.93c0,.64-.04,1.2-.11,1.66-.08,.46-.23,.84-.47,1.14-.24,.28-.59,.48-1.06,.61-.47,.13-1.1,.19-1.87,.19h-12.61c-.77,0-1.39-.06-1.85-.19-.46-.13-.81-.33-1.05-.61-.26-.3-.42-.68-.48-1.14-.06-.46-.1-1.02-.1-1.66v-2.29h6.42v1.48c0,.5,.09,.83,.26,1,.17,.17,.5,.26,1,.26h4.29c.49,0,.82-.09,.98-.26,.16-.17,.24-.5,.24-1v-3.19h-10.99c-.47,0-.85-.04-1.14-.13-.29-.09-.51-.21-.66-.39-.15-.17-.25-.4-.31-.68-.05-.28-.08-.6-.08-.97v-4.13c0-.64,.03-1.2,.1-1.66,.06-.46,.23-.84,.48-1.14,.24-.28,.59-.48,1.05-.61,.46-.13,1.08-.19,1.85-.19h12.61c.77,0,1.4,.06,1.87,.19,.47,.13,.83,.33,1.06,.61,.24,.3,.39,.68,.47,1.14,.08,.46,.11,1.02,.11,1.66v1.29h-6.42Z"/>
      <path class="cls-2" d="M240.35,21.24h3.26v-6.61h6.42v6.61h9.77v3.16h-9.77v10.09c0,.3,.05,.51,.15,.63s.3,.18,.6,.18h2.19c.3,0,.5-.06,.6-.18s.15-.33,.15-.63v-3.26h6.45v3.38c0,.69-.04,1.28-.11,1.77-.08,.49-.24,.89-.5,1.19-.26,.3-.64,.52-1.14,.66-.5,.14-1.18,.21-2.01,.21h-9c-.84,0-1.51-.07-2.02-.21-.51-.14-.89-.36-1.14-.66-.26-.3-.42-.7-.5-1.19-.08-.49-.11-1.08-.11-1.77v-10.22h-3.26v-3.16Z"/>
      <path class="cls-2" d="M275.81,27.82v-2.9c0-.3-.05-.51-.15-.63s-.3-.18-.6-.18h-4.35c-.47,0-.72,.21-.74,.64v13.7h-6.42V19.98h6.42v.97h8.48c.84,0,1.51,.07,2.02,.21,.5,.14,.89,.36,1.14,.66,.26,.32,.42,.73,.5,1.21s.11,1.07,.11,1.76v3.03h-6.42Z"/>
      <path class="cls-2" d="M304.34,34.62c0,.69-.04,1.28-.11,1.77-.08,.49-.24,.89-.5,1.19-.26,.3-.64,.52-1.14,.66-.51,.14-1.18,.21-2.02,.21h-12.03c-.84,0-1.51-.07-2.02-.21-.51-.14-.89-.36-1.14-.66-.26-.3-.42-.7-.5-1.19-.08-.49-.11-1.08-.11-1.77v-9.83c0-.69,.04-1.27,.11-1.76,.07-.48,.24-.89,.5-1.21,.26-.3,.64-.52,1.14-.66,.5-.14,1.18-.21,2.02-.21h12.03c.84,0,1.51,.07,2.02,.21,.5,.14,.89,.36,1.14,.66,.26,.32,.42,.73,.5,1.21,.08,.48,.11,1.07,.11,1.76v9.83Zm-13.12-.13c0,.3,.05,.51,.15,.63s.3,.18,.6,.18h5.22c.3,0,.5-.06,.6-.18,.1-.12,.15-.33,.15-.63v-9.58c0-.3-.05-.51-.15-.63-.1-.12-.3-.18-.6-.18h-5.22c-.3,0-.5,.06-.6,.18s-.15,.33-.15,.63v9.58Z"/>
    </g>
  </g>
</svg>